<svg xmlns="http://www.w3.org/2000/svg" id="Layer_1" viewBox="0 0 2000 2000"><defs fill="#ffffff"><style>.cls-1,.cls-2{fill:#ffffff;}.cls-3{fill:#ffffff;}.cls-2{fill-rule:evenodd;}</style></defs><path class="cls-3" d="M1752.45,1006.02h-65.96l-103.37-116.24h124.29c8.85,0,13.27-7.11,13.27-21.32s-4.42-21.32-13.27-21.32h-149.63v158.88h-48.27v-207.15h200.71c18.5,0,33.12,7.24,43.84,21.72,9.92,13.14,14.88,29.09,14.88,47.86s-4.96,34.72-14.88,47.86c-10.73,14.48-25.34,21.72-43.84,21.72h-18.5l60.74,67.98Z" fill="#ffffff"/><polygon class="cls-3" points="1489.39 847.14 1316.84 847.14 1316.84 878.11 1478.13 878.11 1478.13 926.38 1316.84 926.38 1316.84 957.75 1488.99 957.75 1488.99 1006.02 1268.57 1006.02 1268.57 798.87 1489.39 798.87 1489.39 847.14" fill="#ffffff"/><polygon class="cls-3" points="1254.89 798.87 1180.48 1006.02 1138.65 1006.02 1090.78 872.08 1042.92 1006.02 1000.69 1006.02 926.27 798.87 977.76 798.87 1021.6 922.35 1064.64 798.87 1116.93 798.87 1116.12 800.48 1159.16 922.35 1203.81 798.87 1254.89 798.87" fill="#ffffff"/><path class="cls-3" d="M864.33,940.45v-76.02c0-11.53-6.44-17.29-19.31-17.29h-121.48c-12.87,0-19.31,5.76-19.31,17.29v76.02c0,11.53,6.44,17.3,19.31,17.3h121.48c12.87,0,19.31-5.77,19.31-17.3h0ZM912.6,940.45c0,18.77-6.57,34.39-19.71,46.86-13.14,12.47-29.09,18.7-47.86,18.7h-121.48c-18.77,0-34.72-6.23-47.86-18.7-13.14-12.47-19.71-28.09-19.71-46.86v-76.02c0-18.77,6.57-34.39,19.71-46.86,13.14-12.47,29.09-18.71,47.86-18.71h121.48c18.77,0,34.72,6.24,47.86,18.71,13.14,12.47,19.71,28.09,19.71,46.86v76.02Z" fill="#ffffff"/><polygon class="cls-2" points="286.33 798.87 232.5 934.4 283.45 934.4 231.06 1054.07 269.03 1052.14 232.02 1201.13 399.28 934.4 331.51 934.4 402.17 798.87 286.33 798.87" fill="#ffffff"/><path class="cls-3" d="M635.87,903.09c0,15.49-3.04,29.55-9.14,42.14-6.09,12.59-15.01,23.32-26.78,32.18-11.76,8.86-26.09,15.78-42.97,20.76-16.89,4.98-36.12,7.48-57.72,7.48h-127.96l44.52-71h91.75c13.29,0,23.6-2.91,30.93-8.72,7.34-5.81,11.01-13.56,11.01-23.25s-3.67-17.37-11.01-23.04c-7.33-5.67-17.64-8.52-30.93-8.52h-127.12l37.66-72.24h81.56c21.59,0,40.83,2.56,57.72,7.68,16.89,5.12,31.14,12.25,42.77,21.39,11.63,9.14,20.48,20.07,26.57,32.8,6.09,12.73,9.14,26.85,9.14,42.36Z" fill="#ffffff"/><path class="cls-1" d="M1752.83,1180.11h-105.62c-12.38,0-22.91-4.11-31.58-12.34-8.67-8.22-13-18.53-13-30.91v-50.16c0-12.39,4.34-22.69,13-30.91,8.67-8.23,19.2-12.34,31.58-12.34h105.62v31.85h-105.62c-8.49,0-12.74,3.8-12.74,11.41v50.16c0,7.61,4.24,11.41,12.74,11.41h73.78v-20.7h-43.26v-31.85h75.1v84.39Z" fill="#ffffff"/><polygon class="cls-1" points="1462.83 1180.11 1430.99 1180.11 1348.99 1088.02 1348.99 1180.11 1317.14 1180.11 1317.14 1043.44 1348.99 1043.44 1430.99 1134.73 1430.99 1043.44 1462.83 1043.44 1462.83 1180.11" fill="#ffffff"/><rect class="cls-1" x="1145.5" y="1043.44" width="31.85" height="136.67" fill="#ffffff"/><polygon class="cls-1" points="1005.7 1180.11 973.86 1180.11 891.86 1088.02 891.86 1180.11 860.01 1180.11 860.01 1043.44 891.86 1043.44 973.86 1134.73 973.86 1043.44 1005.7 1043.44 1005.7 1180.11" fill="#ffffff"/><rect class="cls-1" x="688.37" y="1043.44" width="31.85" height="136.67" fill="#ffffff"/><polygon class="cls-1" points="548.57 1180.11 516.73 1180.11 516.73 1096.78 459.93 1177.72 403.14 1096.78 403.14 1180.11 371.3 1180.11 371.3 1043.44 404.73 1043.44 459.93 1122.26 515.4 1043.44 548.57 1043.44 548.57 1180.11" fill="#ffffff"/></svg>